<?xml version="1.0" encoding="UTF-8" standalone="no"?>
<!-- Created with Inkscape (http://www.inkscape.org/) -->

<svg
   width="52.999985mm"
   height="52.891235mm"
   viewBox="0 0 52.999985 52.891235"
   version="1.1"
   id="svg2419"
   xmlns:inkscape="http://www.inkscape.org/namespaces/inkscape"
   xmlns:sodipodi="http://sodipodi.sourceforge.net/DTD/sodipodi-0.dtd"
   xmlns:xlink="http://www.w3.org/1999/xlink"
   xmlns="http://www.w3.org/2000/svg"
   xmlns:svg="http://www.w3.org/2000/svg">
  <sodipodi:namedview
     id="namedview2421"
     pagecolor="#ffffff"
     bordercolor="#000000"
     borderopacity="0.25"
     inkscape:showpageshadow="2"
     inkscape:pageopacity="0.0"
     inkscape:pagecheckerboard="0"
     inkscape:deskcolor="#d1d1d1"
     inkscape:document-units="mm"
     showgrid="false" />
  <defs
     id="defs2416">
    <linearGradient
       id="grad1">
      <stop
         offset="0%"
         stop-color="#009035"
         stop-opacity="1.0000"
         id="stop18" />
      <stop
         offset="100%"
         stop-color="#b1c900"
         stop-opacity="1.0000"
         id="stop20" />
    </linearGradient>
    <linearGradient
       id="grad3">
      <stop
         offset="0%"
         stop-color="#e30016"
         stop-opacity="1.0000"
         id="stop28" />
      <stop
         offset="100%"
         stop-color="#1b1918"
         stop-opacity="1.0000"
         id="stop30" />
    </linearGradient>
    <linearGradient
       id="grad5">
      <stop
         offset="0%"
         stop-color="#008bd0"
         stop-opacity="1.0000"
         id="stop38" />
      <stop
         offset="100%"
         stop-color="#003b88"
         stop-opacity="1.0000"
         id="stop40" />
    </linearGradient>
    <linearGradient
       id="grad7">
      <stop
         offset="0%"
         stop-color="#ffec00"
         stop-opacity="1.0000"
         id="stop48" />
      <stop
         offset="100%"
         stop-color="#f07c00"
         stop-opacity="1.0000"
         id="stop50" />
    </linearGradient>
    <linearGradient
       inkscape:collect="always"
       xlink:href="#grad1"
       id="linearGradient4628"
       gradientUnits="userSpaceOnUse"
       gradientTransform="matrix(1.0026613,0,0,1.1337795,-251.00734,-22.472042)"
       x1="441.68811"
       y1="64.845688"
       x2="441.68811"
       y2="78.879288" />
    <linearGradient
       inkscape:collect="always"
       xlink:href="#grad3"
       id="linearGradient4630"
       gradientUnits="userSpaceOnUse"
       gradientTransform="matrix(1.0324314,0,0,1.101087,-251.00734,-22.472042)"
       x1="415.55826"
       y1="63.827522"
       x2="415.55826"
       y2="77.456459" />
    <linearGradient
       inkscape:collect="always"
       xlink:href="#grad5"
       id="linearGradient4632"
       gradientUnits="userSpaceOnUse"
       gradientTransform="matrix(1.0026613,0,0,1.1337795,-251.00734,-22.472042)"
       x1="439.50467"
       y1="78.335449"
       x2="439.50467"
       y2="92.369049" />
    <linearGradient
       inkscape:collect="always"
       xlink:href="#grad7"
       id="linearGradient4634"
       gradientUnits="userSpaceOnUse"
       gradientTransform="matrix(1.0026684,0,0,1.1337714,-251.00734,-22.472042)"
       x1="425.43796"
       y1="76.24511"
       x2="425.43796"
       y2="90.278709" />
  </defs>
  <g
     inkscape:label="Camada 1"
     inkscape:groupmode="layer"
     id="layer1"
     transform="translate(-85.048388,-16.610809)">
    <g
       id="g4626"
       transform="matrix(0.73626914,0,0,0.73626914,-29.079625,-1.1432989)"
       inkscape:export-filename="favicon.svg"
       inkscape:export-xdpi="96"
       inkscape:export-ydpi="96">
      <rect
         style="fill:#fe5b00;fill-opacity:1;stroke-width:0.43656"
         id="rect5375"
         width="71.984528"
         height="71.836815"
         x="155.00854"
         y="24.113611" />
      <path
         d="m 207.20596,54.506695 c 0.22241,0.746558 0.33703,1.532139 0.33703,2.330195 v 12.113494 h -2.35674 v 8.048048 c 0,4.039751 -2.91757,7.338807 -6.49022,7.338807 h -10.7126 v -2.463151 h -7.54182 c -3.51847,0 -6.39169,-3.248838 -6.39169,-7.227388 V 62.421894 h 2.46219 v -8.826059 c 0,-0.665206 0.0795,-1.322843 0.23574,-1.957769 l -5.41729,2.404509 -0.0362,0.01397 c -2.90232,1.111733 -5.37869,0.946365 -7.38466,-1.934738 l -1.16376,-1.671066 22.88528,-13.62495 c 2.60847,-1.768623 5.07311,-1.633641 7.65855,0.109926 l 25.70433,15.922944 -0.84763,1.581932 c -0.87195,1.627671 -2.32828,2.414745 -3.976,2.505266 -1.01801,0.05576 -2.16877,-0.153108 -3.12217,-0.560932 l -0.0344,-0.01471 z m -13.49114,-5.008613 h 3.25663 l -3.25663,-1.593658 z m -4.83343,-3.241055 h 1.43234 c -0.58983,-0.251304 -0.82194,-0.251091 -1.43234,0 z"
         style="fill:#ffffff;fill-rule:evenodd;stroke-width:1.06621"
         id="path4560" />
      <defs
         id="defs4570" />
      <path
         d="m 191.85621,51.048667 h 9.14677 c 2.70827,0 4.92418,2.505692 4.92418,5.568158 v 10.342844 h -1.33255 v -1.68226 h -12.7384 z"
         style="fill:url(#linearGradient4628);stroke-width:1.06621"
         id="path4572" />
      <defs
         id="defs4582" />
      <path
         d="m 182.95222,47.807612 h 9.14677 v 2.082942 h -1.26698 v 12.919439 l -12.80397,0.0042 v -9.438461 c 0,-3.062466 2.2159,-5.568158 4.92418,-5.568158 z"
         style="fill:url(#linearGradient4630);stroke-width:1.06621"
         id="path4584" />
      <defs
         id="defs4594" />
      <path
         d="m 190.82871,66.343082 h 12.9092 v 10.342844 c 0,3.062467 -2.21589,5.568159 -4.92416,5.568159 h -9.14678 v -1.30493 h 1.16174 z"
         style="fill:url(#linearGradient4632);stroke-width:1.06621"
         id="path4596" />
      <defs
         id="defs4606" />
      <path
         d="m 175.56585,63.972479 h 14.07105 v 15.910895 h -9.24529 c -2.65411,0 -4.82576,-2.455581 -4.82576,-5.456739 z"
         style="fill:url(#linearGradient4634);stroke-width:1.06621"
         id="path4608" />
      <path
         d="m 186.35064,38.148525 c 2.03251,-1.393105 3.89144,-1.401848 6.11065,0.103956 l 24.29597,15.05036 c -1.27743,2.383719 -4.22165,1.625859 -5.20534,1.205667 L 191.2972,44.596517 c -1.45335,-0.67203 -1.90233,-0.702097 -3.44257,-0.03274 l -17.11049,7.594803 c -2.55921,0.972701 -4.21119,0.720543 -5.6543,-1.352056 z"
         style="fill:#57574d;fill-rule:evenodd;stroke-width:1.06621"
         id="path4610" />
      <path
         d="m 192.29463,74.30562 c -0.0243,-0.683331 0.18286,-0.927812 0.69464,-1.092329 l 2.60495,-0.780996 c 0.22295,-0.03593 3.57393,0.984536 3.92962,1.093289 0.4686,0.143191 0.87482,0.232646 1.03283,0.669577 0.11771,0.32562 0.10236,1.385216 0.0683,1.760414 -0.0509,0.126665 -3.382,1.957235 -3.5721,2.058312 l -0.01,-3.425402 c -0.32338,-0.224757 -0.49355,-0.150655 -0.82642,0.0062 l -5.3e-4,1.186795 z m 3.39779,-2.201823 c 0.0656,-0.165156 0.17433,-0.242136 0.30462,-0.343958 0.44994,-0.351742 0.7312,-0.370508 1.29469,-0.29278 0.59836,0.08241 1.17774,0.323167 1.70732,0.547816 l -0.14095,0.234352 c 0.71883,-0.163342 1.00032,-0.316876 1.71627,0.03732 l 1.32444,0.627464 c 0.0602,0.03902 0.0413,0.0354 0.0751,0.07154 -0.0463,0.09212 0.005,0.02175 -0.0728,0.119202 -0.0106,0.01312 -0.0591,0.06514 -0.0869,0.09084 -0.19138,0.176883 -0.44503,0.240429 -0.70156,0.34044 -0.45773,0.178375 -0.62459,0.06056 -1.09584,-0.04947 -0.50625,-0.118136 -1.06728,-0.30291 -1.53022,-0.535556 -0.4186,-0.210469 -0.3446,-0.130504 -0.23777,-0.300244 -0.32743,0.07176 -0.34066,0.116216 -0.72844,0.08049 -0.9083,-0.08369 -1.17964,-0.208443 -1.828,-0.627462 z m 1.59644,-2.469122 -3.3e-4,1.756576 c -0.40078,-0.05555 -0.67992,-0.08966 -1.04498,0.07837 -0.27402,0.126133 -0.60199,0.419232 -0.7005,0.627889 l 0.17454,0.192984 c -0.82536,0.194155 -1.831,0.528305 -2.69324,0.776624 -0.49408,0.142233 -0.42296,0.124214 -0.72758,0.428935 -0.01,-0.1691 0.0113,-0.164195 -0.0506,-0.287875 -0.22273,-0.05022 -0.33308,-0.06878 -0.51646,0.06024 -0.0161,0.638124 -0.0706,3.584054 0.0243,4.007231 l 0.23893,0.167715 0.29588,-0.109286 9e-4,-0.873543 3.91949,1.931859 0.007,1.239252 0.40313,0.243628 c 0.56499,-0.221984 0.43235,-0.346516 0.43172,-1.46582 l 3.16023,-1.891025 c 0.41689,-0.217826 1.71308,-1.059063 1.96033,-1.135616 l 0.004,0.667338 c 0.33777,0.125919 0.31752,0.122081 0.58044,-0.09457 l 0.0151,-5.374321 c -0.28842,-0.171232 -2.20246,-0.490242 -2.67736,-0.576497 -0.85424,-0.154921 -1.94561,-0.469878 -2.80476,-0.370081 z"
         style="fill:#ffffff;fill-rule:evenodd;stroke-width:1.06621"
         id="path4612" />
      <path
         d="m 186.46429,59.699975 c 0.007,-0.08721 0.10961,-0.541953 0.16506,-0.613282 0.0772,-0.09937 0.33073,-0.269004 0.50336,-0.213455 0.0645,0.396735 -0.45496,0.635673 -0.66842,0.826737 z m -4.25639,-7.740554 c 1.60464,-0.355793 2.8876,0.866933 3.15799,2.345761 0.33607,1.838674 -0.79934,3.337014 -2.11706,3.599514 -1.09755,0.218679 -2.21771,-0.322208 -2.77427,-1.340542 -1.04147,-1.905524 -0.0472,-4.209917 1.73334,-4.604733 z m -1.93922,3.290207 c 0.35227,3.642695 5.2934,3.075047 4.94261,-0.627142 -0.13796,-1.457612 -1.29384,-2.67682 -2.77043,-2.492579 -1.27124,0.158651 -2.32987,1.489918 -2.17218,3.119721 z m 2.03709,3.318248 c 0.57522,0.07005 1.26697,0.02751 1.96043,-0.416246 2.88644,-1.74005 1.89285,-6.872449 -1.52169,-6.886417 -2.48191,-0.01012 -4.38605,3.250972 -2.45301,6.064265 0.47254,0.687703 1.33404,1.062687 2.01427,1.238398 z m 3.60186,-1.099366 c 0.002,1.034861 0.61222,1.134125 0.61328,-0.09255 8.6e-4,-0.965983 -0.32082,-2.784185 -0.20993,-3.590877 0.0497,-0.361338 0.62564,-0.338734 0.57447,-1.313461 -0.0269,-0.510606 -0.29545,-1.254605 -0.67598,-1.249487 -0.43917,0.0059 -0.92482,1.247995 -0.50773,2.00884 0.14565,0.265698 0.37574,0.296512 0.41401,0.543125 0.11548,0.742294 -0.20983,2.749535 -0.20812,3.694406 z m 2.83259,0 c 0,-0.595476 -0.0572,-0.978671 -0.10182,-1.555275 -0.0245,-0.318369 0.0171,-0.432027 0.0293,-0.710094 0.0263,-0.602299 0.0502,-3.686196 -0.0865,-3.886429 -0.18093,0.0017 -0.1997,0.04627 -0.24682,0.230406 -0.034,0.13317 -0.0607,0.31048 -0.0839,0.461135 -0.0519,0.337561 -0.0612,0.667232 -0.064,1.019826 -0.005,0.646441 0.0106,1.442685 0.0683,2.081662 0.0368,0.407185 0.10449,0.467532 0.0795,0.972595 -0.0171,0.346516 -0.12113,1.823853 0.0888,2.037947 0.27828,0.283824 0.31698,-0.430321 0.31698,-0.651773 z m -0.94562,-4.118542 -0.075,-2.050636 c -0.0323,0.266338 -0.0198,0.603153 -0.0197,0.896253 l -0.0588,0.873331 c -0.0387,-0.445568 0.0263,-1.490557 -0.0381,-1.67128 -0.0227,-0.06397 -0.0251,-0.05512 -0.0495,-0.08957 -0.0916,0.395243 0.0865,1.504417 -0.0766,1.751137 -0.12879,-0.304828 0.081,-1.430849 -0.0818,-1.734825 -0.19394,0.335216 0.0789,1.365492 -0.0819,1.737385 -0.14522,-0.236485 0.0294,-1.374661 -0.077,-1.749113 -0.13679,0.234246 -0.0658,1.218674 -0.0735,1.577347 -0.002,0.12176 -0.0188,0.282011 0.01,0.396735 0.0866,0.345131 0.26485,-0.113765 0.2109,1.03454 -0.0478,1.016095 -0.23809,2.199797 -0.20791,3.195529 0.02,0.660621 0.40932,0.999462 0.57426,0.351741 0.12816,-0.503037 -0.0947,-2.487034 -0.13893,-3.127931 -0.0181,-0.26186 -0.0355,-0.525852 -0.0372,-0.78846 -0.004,-0.523934 0.0218,-0.367094 0.22081,-0.602193 z m -2.75412,7.363116 c 1.35185,2.14e-4 0.86044,0.10001 1.10481,-0.360378 0.0717,-0.134981 0.11014,-0.230301 0.17048,-0.351421 0.14522,-0.291608 1.03167,-0.629596 0.91908,-1.096487 -0.0892,-0.369334 -0.50048,-0.01429 -0.62107,0.04905 l -0.0123,-0.351422 -2.21089,-0.01706 c -0.0556,1.095315 0.42862,1.511988 0.59046,1.98677 z"
         style="fill:#ffffff;fill-rule:evenodd;stroke-width:1.06621"
         id="path4614" />
      <path
         d="m 201.86267,58.930813 c 0.5861,-0.0354 1.25215,-0.147563 0.96268,0.633327 -0.26432,0.0934 -0.64986,0.08082 -0.96332,0.05491 z m -6.70089,0.699645 c -0.27019,0 -0.63493,0.0773 -0.69784,-0.260795 -0.1063,-0.570527 0.62639,-0.454843 1.03486,-0.43 l 7.4e-4,0.679493 z m 0.33403,0.274016 c 0.0186,0.645268 0.004,1.317297 0.004,1.965551 -1.1e-4,1.691217 -0.2931,1.358134 3.66199,1.358028 3.23946,-1.07e-4 2.6716,0.53097 2.70454,-3.331257 0.2561,-0.01631 1.52233,0.189679 1.23713,-0.836119 -0.15503,-0.55752 -0.78665,-0.32466 -1.13477,-0.404519 -0.21079,-0.0483 -0.0653,-0.08668 -0.5073,-0.08668 h -5.69898 c -0.36091,0 -0.14735,0.06237 -0.45079,0.101077 -0.35057,0.04478 -0.94584,-0.161104 -1.06664,0.464333 -0.0657,0.339693 0.1031,0.612643 0.31357,0.706682 0.219,0.09777 0.66809,0.02815 0.93805,0.0629 z"
         style="fill:#ffffff;fill-rule:evenodd;stroke-width:1.06621"
         id="path4616" />
      <path
         d="m 201.25024,56.967927 c 0.47382,-0.02868 1.01225,-0.119309 0.77823,0.511992 -0.21368,0.07549 -0.52532,0.06525 -0.77866,0.04425 z m -5.41644,0.565622 c -0.21835,0 -0.51316,0.06237 -0.56413,-0.210895 -0.0859,-0.461135 0.50645,-0.367628 0.83654,-0.347477 l 5.5e-4,0.549203 z m 0.26996,0.221451 c 0.005,0.168141 0.006,0.338628 0.007,0.509967 h 5.14114 c -9e-4,-0.160358 -9e-4,-0.33191 4.3e-4,-0.51615 0.20695,-0.01333 1.2305,0.15332 0.99999,-0.675869 -0.12539,-0.450792 -0.63588,-0.2625 -0.91736,-0.327006 -0.17028,-0.03902 -0.0528,-0.07015 -0.41007,-0.07015 h -4.60654 c -0.29171,0 -0.1192,0.05053 -0.36443,0.08178 -0.2834,0.03615 -0.76448,-0.130291 -0.86225,0.375305 -0.0531,0.274548 0.0834,0.495253 0.25355,0.571273 0.17699,0.07901 0.53993,0.02271 0.75818,0.05086 z"
         style="fill:#ffffff;fill-rule:evenodd;stroke-width:1.06621"
         id="path4618" />
      <path
         d="m 200.71575,55.287159 c 0.38501,-0.02335 0.82247,-0.09702 0.63237,0.415926 -0.17369,0.06131 -0.42691,0.0531 -0.63279,0.03604 z m -4.4013,0.459534 c -0.17742,0 -0.41699,0.05064 -0.45837,-0.171339 -0.0698,-0.374772 0.41146,-0.298751 0.67971,-0.282438 l 5.3e-4,0.446314 z m 0.21942,0.179976 c 0.005,0.136688 0.005,0.275188 0.005,0.414435 l 4.17761,-1.07e-4 c -8.4e-4,-0.13029 -9e-4,-0.269644 3.3e-4,-0.419446 0.16814,-0.01077 0.99989,0.12464 0.81255,-0.549096 -0.10182,-0.366348 -0.51668,-0.213348 -0.74538,-0.265805 -0.1384,-0.03166 -0.0428,-0.05694 -0.33319,-0.05694 h -3.74324 c -0.23702,0 -0.0968,0.04105 -0.29608,0.06642 -0.23031,0.02943 -0.62118,-0.105875 -0.70061,0.305041 -0.0431,0.223051 0.0677,0.40228 0.20599,0.46412 0.14383,0.06429 0.43874,0.01855 0.61616,0.04136 z"
         style="fill:#ffffff;fill-rule:evenodd;stroke-width:1.06621"
         id="path4620" />
      <path
         d="m 197.87218,54.5728 c 0.002,-0.614349 0.28286,-0.481606 0.77353,-0.481819 0.47542,-3.19e-4 0.72992,-0.11579 0.73461,0.470837 z m -0.1449,0.01237 c -0.47937,0.0532 -0.57724,0.05331 -1.02622,0.171446 -0.15429,0.04063 -0.23073,-0.01205 -0.29651,0.121973 0.0643,0.115684 0.0531,0.08338 0.20236,0.08732 0.094,0.0025 0.20215,-0.0039 0.29854,-0.004 l 2.85668,1.07e-4 c 0.1852,0 1.00448,0.07538 1.08455,-0.08349 -0.0617,-0.136153 -0.13935,-0.08049 -0.2899,-0.118988 -0.44269,-0.113337 -0.54313,-0.131356 -1.03102,-0.171446 -0.005,-0.741014 -0.28639,-0.661901 -0.88005,-0.661901 -0.57,0 -0.92579,-0.08593 -0.91843,0.658916 z"
         style="fill:#ffffff;fill-rule:evenodd;stroke-width:1.06621"
         id="path4622" />
      <path
         d="m 182.64674,76.24004 h 2.70465 l -1.1e-4,-4.326348 -1.58587,-0.003 c 0.0205,0.121015 0.744,1.461023 0.80072,1.633109 l -0.61595,-0.111632 -0.27028,0.504742 c -0.002,0.0024 -0.005,0.0058 -0.005,0.0079 l -0.0188,0.02165 c -0.0789,-0.101182 -0.93986,-1.941775 -1.0082,-1.995298 z m -0.44738,-6.538193 c -0.40462,-0.02068 -1.39001,-0.255144 -1.53544,-0.733231 -0.13296,-0.437251 0.17635,-0.946898 0.66041,-0.731844 0.20322,0.09041 0.30024,0.20162 0.40463,0.364962 0.13252,0.207271 0.43063,0.80296 0.4704,1.100113 z m 0.56146,0.03593 c 0.0782,-0.439811 0.30313,-0.775666 0.48108,-1.094781 0.10086,-0.180935 0.18264,-0.304722 0.37904,-0.39471 0.44972,-0.205884 0.84038,0.165582 0.60273,0.681946 -0.0828,0.179656 -0.21261,0.295552 -0.37531,0.398761 -0.24117,0.152894 -0.76927,0.373279 -1.08754,0.408784 z m -3.59151,0.109926 v 1.713714 l 3.12484,0.0036 9e-4,-1.716593 0.38148,-0.0041 8.6e-4,1.714886 3.12377,0.006 v -1.712115 l -1.78984,-0.0096 c 0.0198,-0.06237 0.74816,-0.375731 0.74965,-1.116852 6.4e-4,-0.289688 -0.0969,-0.568288 -0.21847,-0.743039 -0.0913,-0.13125 -0.24725,-0.229448 -0.40367,-0.282758 -0.0504,-0.01717 -0.12101,-0.02048 -0.166,-0.04361 h -0.19917 c -0.0821,0.04105 -0.22337,0.02026 -0.46924,0.179336 -0.26793,0.173366 -0.45495,0.444288 -0.60188,0.745492 -0.0251,0.0515 -0.19618,0.427123 -0.22325,0.444288 -0.0695,-0.150761 -0.10993,-0.34513 -0.18574,-0.50165 -0.12496,-0.258235 -0.39311,-0.535342 -0.62842,-0.68781 -0.0707,-0.04574 -0.14255,-0.0804 -0.21762,-0.110992 -0.067,-0.02729 -0.18977,-0.04052 -0.24181,-0.06867 h -0.2256 c -0.0443,0.02655 -0.12145,0.03689 -0.17305,0.05705 -0.38234,0.149908 -0.57255,0.488855 -0.6296,0.960545 -0.0509,0.419872 0.13359,0.76479 0.3977,0.984322 0.0399,0.03316 0.074,0.06451 0.12101,0.09638 0.0331,0.02239 0.10151,0.04606 0.11633,0.09191 z m 0.45644,6.392336 h 2.71808 V 71.93235 c -0.0478,0.04435 -0.53299,1.056291 -0.63886,1.265268 -0.0677,0.133595 -0.35015,0.729072 -0.3896,0.761591 -0.0623,-0.07165 -0.22614,-0.436825 -0.29097,-0.522975 l -0.61669,0.118669 c 0.0338,-0.101609 0.51945,-1.058743 0.60689,-1.233174 l 0.19884,-0.408571 -1.58257,-0.0024 z"
         style="fill:#ffffff;fill-rule:evenodd;stroke-width:1.06621"
         id="path4624" />
    </g>
  </g>
</svg>
